<?xml version="1.0" standalone="no"?>
<!DOCTYPE svg PUBLIC "-//W3C//DTD SVG 20010904//EN"
 "http://www.w3.org/TR/2001/REC-SVG-20010904/DTD/svg10.dtd">
<svg version="1.0" xmlns="http://www.w3.org/2000/svg"
 width="202.000000pt" height="182.000000pt" viewBox="0 0 202.000000 182.000000"
 preserveAspectRatio="xMidYMid meet">
<metadata>
Created by potrace 1.16, written by Peter Selinger 2001-2019
</metadata>
<g transform="translate(0.000000,182.000000) scale(0.100000,-0.100000)"
fill="#000000" stroke="none">
<path d="M23 1504 l2 -269 219 -395 c455 -821 424 -769 467 -790 21 -11 54
-20 72 -20 27 0 576 107 742 145 82 19 206 60 258 87 70 35 142 99 167 148 22
44 24 70 22 355 l-2 230 -24 -51 c-17 -37 -40 -64 -78 -92 -119 -89 -203 -115
-687 -212 -425 -86 -435 -87 -494 -40 -14 11 -45 55 -68 98 -51 93 -197 358
-382 693 -75 135 -150 273 -168 305 -17 32 -36 63 -40 68 -5 6 -8 -110 -6
-260z"/>
<path d="M807 1675 c-210 -42 -210 -43 -202 -63 5 -13 240 -444 250 -460 1 -1
42 4 90 13 146 25 221 -1 302 -106 31 -39 52 -58 62 -55 9 3 30 8 46 12 46 10
102 44 115 70 22 39 6 110 -48 218 -108 214 -201 344 -276 383 -56 29 -155 26
-339 -12z"/>
</g>
</svg>
